<svg xmlns="http://www.w3.org/2000/svg" width="110" height="24" fill="none" viewBox="0 0 110 24">
    <g fill-rule="evenodd" clip-path="url(#clip0)" clip-rule="evenodd">
        <path fill="#84BE52" d="M4.99 10.23v5.05h5.237v3.909l-3.668-1.225.008-.019-1.812-.583C1.135 16.152-.82 12.343.328 8.798l.106-.303C1.747 5.005 5.68 3.162 9.3 4.371l.927.307v5.552H4.99zm15.072 0c-.775-1.653-2.215-3.004-4.114-3.639l-.515-.172v3.81h4.63zm-4.629 9.502c2.209-.56 4.097-2.158 4.89-4.425l.006-.018.003-.008h-4.899v4.45z"/>
        <path fill="#24AEB1" d="M80.848 16.475c.285 0 .553-.039.795-.116.264-.084.493-.227.68-.425.189-.2.337-.474.443-.815.106-.348.16-.792.16-1.319v-.569c0-.526-.054-.976-.162-1.336-.104-.353-.254-.642-.445-.858-.188-.213-.417-.37-.68-.464-.244-.087-.514-.131-.802-.131l-.093.001-.107-.001c-.287 0-.557.042-.799.124-.263.089-.492.242-.678.454-.19.218-.34.508-.445.866-.107.365-.162.817-.162 1.345v.57c0 .527.054.974.162 1.327.103.346.252.623.44.823.188.197.416.337.678.416.272.081.575.117.902.107l.113.001zm1.176-7.103c.307.09.598.196.87.312l.032-4.48h2.212v8.304c-.023.646-.12 1.229-.29 1.739-.174.517-.444.965-.802 1.333-.359.368-.823.654-1.382.85-.552.195-1.227.294-2.008.294-.748 0-1.394-.1-1.919-.295-.53-.196-.976-.483-1.323-.851-.347-.366-.61-.814-.782-1.332-.17-.51-.267-1.092-.29-1.734.023-.65.12-1.237.29-1.758.172-.527.435-.986.781-1.363.347-.379.791-.676 1.321-.885.527-.207 1.173-.312 1.922-.312.513 0 .973.06 1.368.178zm-16.496 1.126c-.342-.385-.79-.686-1.333-.895-.538-.206-1.195-.31-1.954-.31-.717 0-1.355.11-1.898.328-.492.198-.919.478-1.267.837-.322-.338-.73-.603-1.215-.79-.538-.206-1.2-.31-1.971-.31-1.38 0-2.458.401-3.2 1.194-.74.789-1.114 1.877-1.114 3.233v3.922h2.212v-4.428c0-.527.054-.973.16-1.326.104-.346.253-.622.442-.823.187-.196.415-.337.677-.416.241-.072.509-.11.794-.11l.118.002c.323-.01.61.029.853.114.233.083.434.224.593.42.164.2.292.471.38.808.092.345.138.782.138 1.3v4.459h2.212v-3.743c0-.287-.004-.474-.009-.563-.005-.083-.008-.145-.008-.186 0-.527.054-.974.161-1.328.104-.346.253-.623.442-.822.187-.197.413-.337.676-.416.242-.073.51-.11.795-.11l.092.002h.025c.325-.01.615.03.863.115.239.082.44.223.6.417.164.2.289.475.372.815.086.351.13.798.13 1.327v4.492h2.212V13.72c0-.673-.077-1.286-.23-1.822-.156-.545-.407-1.015-.748-1.4zm5.146.324c.226-.132.495-.199.8-.199h.033c.574 0 1.03.182 1.394.557.34.353.562.922.659 1.695h-4.037c.036-.26.094-.512.175-.756.094-.288.224-.546.387-.766.16-.216.358-.395.59-.53zm3.924-.174c-.368-.377-.817-.678-1.331-.896-.516-.218-1.096-.335-1.732-.345-.595.021-1.152.147-1.655.37-.505.224-.948.528-1.32.902-.373.375-.666.816-.873 1.308-.206.493-.311 1.027-.311 1.591.023.601.147 1.161.37 1.665.224.503.53.943.908 1.307.379.364.83.652 1.34.854.509.201 1.073.303 1.67.303h.002c.058.003.116.005.174.005.345 0 .683-.06 1.003-.177.358-.13.715-.274 1.06-.427l.11-.05-.197-.797-.147.039c-.683.18-1.23.272-1.629.272-.473 0-.87-.081-1.18-.244-.313-.163-.569-.369-.76-.612-.194-.245-.337-.52-.426-.815-.075-.248-.13-.492-.165-.728h6.18v-.144c0-.063.002-.145.008-.245.006-.107.008-.188.008-.238.024-.55-.064-1.08-.26-1.58-.194-.498-.48-.942-.847-1.318zm17.27 3.578c-.165-.28-.382-.525-.646-.726-.258-.196-.552-.366-.872-.507-.308-.134-.625-.264-.938-.384-.245-.097-.481-.192-.708-.285-.218-.088-.414-.19-.581-.303-.163-.11-.295-.23-.39-.357-.087-.117-.13-.254-.13-.42 0-.155.04-.285.123-.396.087-.12.202-.221.34-.303.141-.084.31-.15.5-.195.193-.046.392-.07.577-.07.356.032.67.077.93.136.256.057.482.128.673.21.192.084.361.173.503.266.148.096.287.192.418.288l.237.174v-.29c0-.16.002-.319.008-.475.006-.165-.009-.364-.044-.588l-.01-.067-.06-.035c-.224-.131-.434-.245-.627-.34-.197-.096-.41-.173-.627-.23-.218-.055-.456-.095-.708-.118-.248-.022-.533-.033-.847-.033-.412 0-.812.052-1.189.152-.38.1-.723.252-1.02.451-.299.2-.54.45-.718.737-.18.293-.272.625-.272.987 0 .424.085.79.252 1.087.165.293.383.544.648.744.258.197.553.365.873.5.314.131.637.252.959.361.243.087.475.173.695.259.213.083.402.18.564.287.156.103.284.223.38.354.087.123.13.264.13.43 0 .193-.041.355-.128.496-.089.143-.213.267-.371.369-.165.105-.355.186-.567.242-.213.056-.444.084-.692.085-.517.02-.974-.011-1.353-.095-.374-.082-.763-.26-1.156-.53l-.276-.19.207 1.526.093.027c.46.132.92.227 1.364.282.441.054.88.087 1.306.098h.004c.387 0 .786-.048 1.185-.142.403-.095.772-.247 1.096-.45.328-.207.6-.477.803-.803.209-.332.313-.727.313-1.175 0-.404-.084-.754-.252-1.04zM33.92 9.668c.542.209.99.51 1.332.896.341.383.593.854.748 1.399.153.536.23 1.15.23 1.822v3.922H34.02V13.28c0-.528-.043-.974-.13-1.327-.083-.341-.208-.615-.37-.814-.163-.198-.359-.335-.602-.419-.248-.085-.539-.122-.862-.114h-.118c-.285 0-.553.036-.794.108-.262.08-.49.22-.676.416-.19.2-.338.477-.442.822-.107.354-.16.8-.16 1.328v4.427h-2.213v-3.922c0-1.356.375-2.443 1.114-3.232.742-.793 1.819-1.196 3.2-1.196.76 0 1.417.105 1.955.311zm6.48 1.154c.225-.132.494-.199.799-.199h.033c.573 0 1.03.182 1.393.558.34.352.563.92.66 1.694h-4.038c.037-.258.095-.511.175-.756.095-.288.225-.546.388-.766.16-.216.358-.395.59-.53zm3.922-.174c-.368-.377-.816-.678-1.331-.896-.515-.218-1.095-.335-1.731-.345-.595.021-1.152.147-1.656.37-.504.224-.948.527-1.32.902-.373.376-.666.816-.873 1.308-.206.494-.31 1.027-.31 1.591.022.602.147 1.162.37 1.664.223.504.529.944.907 1.308.38.365.83.652 1.34.854.51.201 1.074.303 1.67.303h.002c.059.003.116.005.174.005.346 0 .683-.06 1.003-.177.358-.13.714-.274 1.06-.427l.11-.05-.197-.797-.147.039c-.682.18-1.23.272-1.628.272-.474 0-.87-.081-1.18-.244-.313-.163-.57-.369-.761-.612-.194-.245-.337-.52-.425-.815-.075-.249-.13-.492-.166-.728h6.18v-.144c0-.063.003-.145.008-.245.006-.107.009-.188.009-.238.023-.55-.065-1.08-.26-1.58-.195-.498-.48-.942-.847-1.318zm4.709-.139v5.75h-.002l-.002.334c0 .199.06.512.39.559.13.018.48.038.624.038l.064-.003.045-.003v.477c-.341.06-.948.093-1.39.093-.322 0-.6-.025-.837-.075-.236-.05-.43-.122-.586-.214-.155-.092-.27-.202-.344-.33-.074-.128-.112-.27-.112-.427v-1.176h.004V10.51h-1.95v-1.25h1.95V6.53l2.146-1.308V9.26h1.933v1.249h-1.933z"/>
        <path fill="#151B39" d="M92.715 7.823h-.603v-.116h1.336v.116h-.603v1.575h-.13V7.823M93.888 7.707h.12l.695 1 .696-1h.12v1.69h-.128V7.93l-.685.974h-.01l-.685-.974v1.469h-.123V7.707M92.807 17.707h.747v-.833h-.747v.833zM96.273 17.802c-.309 0-.594-.057-.857-.17-.262-.114-.49-.268-.681-.46-.193-.193-.343-.42-.451-.678-.108-.26-.163-.532-.163-.817v-.016c0-.29.055-.566.163-.825.108-.26.258-.486.45-.682.193-.196.42-.35.682-.464.263-.113.548-.17.857-.17.2 0 .381.018.544.055.162.037.31.09.446.155.135.066.26.144.374.234.113.09.218.185.316.285l-.414.428c-.167-.169-.35-.314-.548-.436-.197-.121-.44-.182-.726-.182-.211 0-.41.04-.593.123-.184.082-.343.194-.479.337-.135.142-.241.31-.316.503-.076.194-.114.401-.114.623v.016c0 .222.039.43.118.622.079.193.186.363.325.508.137.145.3.259.486.342.187.081.392.122.613.122.27 0 .51-.058.718-.175.209-.116.397-.261.565-.436l.398.365c-.211.233-.45.423-.72.571-.267.148-.598.222-.993.222M100.461 17.255c.227 0 .436-.043.625-.127.19-.085.352-.198.487-.34.136-.144.241-.31.317-.5.075-.191.114-.394.114-.611v-.016c0-.222-.039-.43-.118-.623-.079-.193-.188-.362-.329-.507-.14-.146-.306-.26-.495-.345-.189-.085-.395-.127-.617-.127-.227 0-.435.042-.625.127-.19.084-.35.198-.483.34-.133.143-.237.311-.313.504-.075.193-.113.398-.113.615v.016c0 .222.039.43.118.622.078.193.187.361.324.504.138.143.302.256.492.341.188.084.395.127.616.127m-.016.547c-.314 0-.603-.057-.868-.17-.266-.114-.496-.268-.69-.46-.195-.193-.347-.418-.455-.674-.109-.257-.162-.53-.162-.821v-.016c0-.29.053-.566.162-.825.108-.26.26-.486.455-.682.194-.196.426-.35.693-.464.268-.113.562-.17.881-.17.314 0 .605.057.873.17.268.114.499.267.694.46.195.193.346.418.455.674.107.257.162.53.162.821v.016c0 .29-.056.566-.167.825-.111.259-.263.486-.458.682-.195.195-.428.35-.699.464-.27.113-.562.17-.876.17M103.286 13.607h.625v.69c.07-.1.147-.199.232-.293.084-.096.179-.179.288-.25.108-.072.23-.129.365-.171.135-.043.292-.063.471-.063.341 0 .622.077.844.233.222.156.389.35.503.584.076-.112.161-.217.256-.318.094-.1.202-.187.32-.262.12-.073.254-.132.402-.174.149-.043.316-.063.499-.063.488 0 .869.146 1.145.44.276.293.414.697.414 1.21v2.537h-.624v-2.39c0-.396-.097-.7-.289-.914-.193-.214-.459-.32-.799-.32-.158 0-.306.027-.447.083-.141.055-.264.137-.369.245-.106.108-.19.241-.252.4-.062.158-.093.337-.093.538v2.358h-.618v-2.406c0-.385-.096-.684-.287-.898-.193-.214-.457-.32-.792-.32-.168 0-.322.031-.463.094-.14.064-.263.154-.369.27-.105.116-.188.252-.248.407-.059.156-.089.329-.089.518v2.335h-.625v-4.1"/>
    </g>
    <defs>
        <clipPath id="clip0">
            <path fill="#fff" d="M0 0H109.846V24H0z"/>
        </clipPath>
    </defs>
</svg>
