<svg xmlns="http://www.w3.org/2000/svg" xmlns:xlink="http://www.w3.org/1999/xlink" width="96" height="96" viewBox="0 0 96 96">
    <defs>
        <rect id="b" width="64" height="64" rx="16"/>
        <filter id="a" width="189.1%" height="189.1%" x="-44.5%" y="-30.5%" filterUnits="objectBoundingBox">
            <feOffset dy="9" in="SourceAlpha" result="shadowOffsetOuter1"/>
            <feGaussianBlur in="shadowOffsetOuter1" result="shadowBlurOuter1" stdDeviation="8"/>
            <feColorMatrix in="shadowBlurOuter1" values="0 0 0 0 0.0823529412 0 0 0 0 0.105882353 0 0 0 0 0.223529412 0 0 0 0.14 0"/>
        </filter>
    </defs>
    <g fill="none" fill-rule="evenodd">
        <g transform="translate(16 7)">
            <use fill="#000" filter="url(#a)" xlink:href="#b"/>
            <use fill="#FFF" xlink:href="#b"/>
        </g>
        <path fill="#FFF" fill-rule="nonzero" d="M57.266 27.861l-10.6-3.445v11.008H36.12l-.428 11.45 10.974 6.497c5.75 1.032 9.284 1.39 10.6 1.074 1.974-.474 8.941-5.77 9.838-8.838.896-3.069.677-7.758-.513-10.136-.793-1.585-3.902-4.122-9.325-7.61z"/>
        <path fill="#84BE52" d="M67.14 45.561c-.005.018-.01.035-.017.052-1.605 4.536-5.425 7.732-9.895 8.85v-8.902zM26.88 31.991c2.656-6.98 10.614-10.667 17.938-8.25l1.876.615V35.46H36.097V45.56h10.596v7.817l-7.421-2.45.015-.037-3.665-1.167c-7.325-2.418-11.28-10.037-8.958-17.127zm30.349-4.153l1.041.344c3.844 1.27 6.757 3.972 8.325 7.277h-9.366v-7.62z"/>
    </g>
</svg>
