<svg xmlns="http://www.w3.org/2000/svg" width="113" height="137" fill="none" viewBox="0 0 113 137">
    <path fill="#F3F7FB" d="M0 0H105V122H0z"/>
    <g filter="url(#filter0_d)">
        <ellipse cx="72.622" cy="89.709" fill="#0B1219" rx="6.417" ry="18.941" transform="rotate(97.052 72.622 89.709)"/>
    </g>
    <g filter="url(#filter1_d)">
        <ellipse cx="42.816" cy="77.939" fill="#0B1219" rx="7.267" ry="21.259" transform="rotate(96.867 42.816 77.94)"/>
    </g>
    <path fill="url(#paint0_linear)" d="M70.182 47.1c14.608-.222 26.53 11.275 26.813 25.881.041 2.145-.173 4.232-.615 6.234-.747 3.39-1.192 6.84-1.192 10.312v6.71c0 1.029-.833 1.862-1.861 1.862h-6.711c-3.472 0-6.922.445-10.312 1.192-2.002.442-4.09.656-6.234.615-14.606-.283-26.103-12.205-25.88-26.812.217-14.258 11.735-25.775 25.992-25.993z"/>
    <path fill="url(#paint1_linear)" d="M70.182 47.1c14.608-.222 26.53 11.275 26.813 25.881.041 2.145-.173 4.232-.615 6.234-.747 3.39-1.192 6.84-1.192 10.312v6.71c0 1.029-.833 1.862-1.861 1.862h-6.711c-3.472 0-6.922.445-10.312 1.192-2.002.442-4.09.656-6.234.615-14.606-.283-26.103-12.205-25.88-26.812.217-14.258 11.735-25.775 25.992-25.993z"/>
    <path fill="url(#paint2_linear)" d="M49.672 23.004c-17.796-.272-32.321 13.734-32.666 31.53-.05 2.611.21 5.155.749 7.594.91 4.13 1.452 8.333 1.452 12.562v8.175c0 1.253 1.016 2.269 2.268 2.269h8.176c4.229 0 8.432.541 12.562 1.452 2.44.538 4.982.8 7.595.749 17.794-.345 31.8-14.87 31.53-32.665C81.071 37.3 67.04 23.27 49.671 23.004z"/>
    <path fill="url(#paint3_linear)" d="M37.655 53.446c-.909-.966-2.195-1.572-3.626-1.572-2.752 0-4.983 2.231-4.983 4.983 0 1.43.607 2.717 1.572 3.626l10.75 10.749c.908.966 2.194 1.572 3.625 1.572 2.752 0 4.983-2.231 4.983-4.983 0-1.43-.606-2.717-1.572-3.626L37.655 53.446z"/>
    <path fill="#fff" d="M34.03 61.839c2.751 0 4.982-2.231 4.982-4.983s-2.23-4.983-4.983-4.983c-2.752 0-4.983 2.231-4.983 4.983s2.231 4.983 4.983 4.983z"/>
    <path fill="url(#paint4_linear)" d="M51.747 53.446c-.908-.966-2.195-1.572-3.626-1.572-2.752 0-4.983 2.231-4.983 4.983 0 1.43.607 2.717 1.573 3.626l10.748 10.749c.91.966 2.196 1.572 3.626 1.572 2.752 0 4.983-2.231 4.983-4.983 0-1.43-.606-2.717-1.572-3.626L51.747 53.446z"/>
    <path fill="#fff" d="M48.121 61.839c2.752 0 4.983-2.231 4.983-4.983s-2.23-4.983-4.983-4.983c-2.752 0-4.983 2.231-4.983 4.983s2.232 4.983 4.983 4.983z"/>
    <path fill="url(#paint5_linear)" d="M65.84 53.446c-.91-.966-2.196-1.572-3.627-1.572-2.752 0-4.983 2.231-4.983 4.983 0 1.43.607 2.717 1.573 3.626l10.749 10.749c.908.966 2.195 1.572 3.625 1.572 2.752 0 4.983-2.231 4.983-4.983 0-1.43-.606-2.717-1.572-3.626L65.84 53.446z"/>
    <path fill="#fff" d="M62.214 61.839c2.752 0 4.983-2.231 4.983-4.983s-2.23-4.983-4.983-4.983c-2.752 0-4.983 2.231-4.983 4.983s2.231 4.983 4.983 4.983z"/>
    <defs>
        <linearGradient id="paint0_linear" x1="65.263" x2="104.032" y1="68.175" y2="106.945" gradientUnits="userSpaceOnUse">
            <stop stop-color="#A7F3CE"/>
            <stop offset="1" stop-color="#61DB99"/>
        </linearGradient>
        <linearGradient id="paint1_linear" x1="77.954" x2="61.487" y1="80.866" y2="64.4" gradientUnits="userSpaceOnUse">
            <stop stop-color="#61DB99" stop-opacity="0"/>
            <stop offset="1" stop-color="#009E74"/>
        </linearGradient>
        <linearGradient id="paint2_linear" x1="37.417" x2="78.349" y1="49.969" y2="90.902" gradientUnits="userSpaceOnUse">
            <stop stop-color="#62E1FB"/>
            <stop offset="1" stop-color="#00A2F3"/>
        </linearGradient>
        <linearGradient id="paint3_linear" x1="45.114" x2="23.562" y1="67.943" y2="46.392" gradientUnits="userSpaceOnUse">
            <stop stop-color="#00A2F3" stop-opacity="0"/>
            <stop offset="1" stop-color="#0075CD"/>
        </linearGradient>
        <linearGradient id="paint4_linear" x1="59.205" x2="37.654" y1="67.942" y2="46.391" gradientUnits="userSpaceOnUse">
            <stop stop-color="#00A2F3" stop-opacity="0"/>
            <stop offset="1" stop-color="#0075CD"/>
        </linearGradient>
        <linearGradient id="paint5_linear" x1="73.297" x2="51.746" y1="67.942" y2="46.392" gradientUnits="userSpaceOnUse">
            <stop stop-color="#00A2F3" stop-opacity="0"/>
            <stop offset="1" stop-color="#0075CD"/>
        </linearGradient>
        <filter id="filter0_d" width="75.629" height="53.563" x="36.807" y="82.928" color-interpolation-filters="sRGB" filterUnits="userSpaceOnUse">
            <feFlood flood-opacity="0" result="BackgroundImageFix"/>
            <feColorMatrix in="SourceAlpha" values="0 0 0 0 0 0 0 0 0 0 0 0 0 0 0 0 0 0 127 0"/>
            <feOffset dx="2" dy="21"/>
            <feGaussianBlur stdDeviation="9.5"/>
            <feColorMatrix values="0 0 0 0 0.509804 0 0 0 0 0.894118 0 0 0 0 0.709804 0 0 0 0.7 0"/>
            <feBlend in2="BackgroundImageFix" result="effect1_dropShadow"/>
            <feBlend in="SourceGraphic" in2="effect1_dropShadow" result="shape"/>
        </filter>
        <filter id="filter1_d" width="80.249" height="53.304" x="2.692" y="69.287" color-interpolation-filters="sRGB" filterUnits="userSpaceOnUse">
            <feFlood flood-opacity="0" result="BackgroundImageFix"/>
            <feColorMatrix in="SourceAlpha" values="0 0 0 0 0 0 0 0 0 0 0 0 0 0 0 0 0 0 127 0"/>
            <feOffset dy="18"/>
            <feGaussianBlur stdDeviation="9.5"/>
            <feColorMatrix values="0 0 0 0 0.184314 0 0 0 0 0.733333 0 0 0 0 0.952941 0 0 0 0.7 0"/>
            <feBlend in2="BackgroundImageFix" result="effect1_dropShadow"/>
            <feBlend in="SourceGraphic" in2="effect1_dropShadow" result="shape"/>
        </filter>
    </defs>
</svg>
