<svg xmlns="http://www.w3.org/2000/svg" width="122" height="144" fill="none" viewBox="0 0 122 144">
    <g filter="url(#filter0_d)">
        <ellipse fill="#0B1219" rx="10.889" ry="24.268" transform="matrix(0 -1 -.99999 -.00507 75.268 86.052)"/>
    </g>
    <g filter="url(#filter1_d)">
        <ellipse fill="#0B1219" rx="10.889" ry="11" transform="matrix(0 -1 -.99999 -.00507 33 85.945)"/>
    </g>
    <g filter="url(#filter2_d)">
        <ellipse fill="#0B1219" rx="10.889" ry="11" transform="matrix(0 -1 -.99999 -.00507 51 85.945)"/>
    </g>
    <path fill="url(#paint0_linear)" d="M100.31 38.828h-1.896v-7.586h-33.38v7.586h-1.896c-1.51 0-2.956.6-4.023 1.666-1.067 1.067-1.667 2.514-1.667 4.023v45.897c0 2.012.8 3.942 2.222 5.364C61.093 97.201 63.022 98 65.034 98h33.38c2.012 0 3.941-.8 5.364-2.222S106 92.426 106 90.414V44.517c0-1.509-.6-2.956-1.667-4.023-1.067-1.067-2.514-1.666-4.023-1.666z"/>
    <path fill="#fff" fill-opacity=".2" d="M57.448 52.482H106v36.414H57.448V52.482z"/>
    <path fill="#FFF9F8" d="M69.586 60.07h28.828v13.655H69.586V60.069z"/>
    <path fill="url(#paint1_linear)" d="M64.276 10h34.896c1.006 0 1.971.4 2.682 1.111.712.711 1.111 1.676 1.111 2.682v15.552c0 .503-.2.985-.555 1.34-.356.357-.838.556-1.341.556h-38.69c-.503 0-.985-.2-1.34-.555-.357-.356-.556-.838-.556-1.341V13.793c0-1.006.4-1.97 1.11-2.682C62.306 10.4 63.27 10 64.277 10z"/>
    <path fill="url(#paint2_linear)" d="M65.034 14.55h3.035V26.69h-3.035V14.55z"/>
    <path fill="url(#paint3_linear)" d="M71.103 14.55h3.035V26.69h-3.035V14.55z"/>
    <path fill="url(#paint4_linear)" d="M77.172 14.55h3.035V26.69h-3.035V14.55z"/>
    <path fill="url(#paint5_linear)" d="M83.241 14.55h3.035V26.69H83.24V14.55z"/>
    <path fill="url(#paint6_linear)" d="M89.31 14.55h3.035V26.69H89.31V14.55z"/>
    <path fill="url(#paint7_linear)" d="M95.38 14.55h3.034V26.69h-3.035V14.55z"/>
    <path fill="#FFF9F8" d="M69.586 79.793h9.104v3.034h-9.104v-3.034zM81.724 79.793H99.93v3.034H81.724v-3.034z"/>
    <path fill="url(#paint8_linear)" d="M45.31 26.689l2.682 4.904 4.905 2.682-4.904 2.682-2.683 4.904-2.682-4.904-4.904-2.682 4.904-2.682 2.682-4.904z"/>
    <path fill="url(#paint9_linear)" d="M51.759 49.448H51c-7.332 0-13.276 5.944-13.276 13.276v22C37.724 92.056 43.668 98 51 98h.759c7.332 0 13.275-5.944 13.275-13.276v-22c0-7.332-5.943-13.276-13.275-13.276z"/>
    <path fill="#FFF9F8" d="M48.345 72.207h16.69v6.07H51.378l-3.034-6.07z"/>
    <path fill="url(#paint10_linear)" d="M26.743 18.706l-1.877 3.433-3.433 1.877 3.433 1.878 1.877 3.432 1.878-3.433 3.433-1.877-3.433-1.877-1.878-3.433z"/>
    <path fill="url(#paint11_linear)" d="M34.69 98c9.217 0 16.69-7.472 16.69-16.69 0-9.217-7.473-16.69-16.69-16.69-9.218 0-16.69 7.473-16.69 16.69C18 90.528 25.472 98 34.69 98z"/>
    <path fill="#F29A49" d="M20.938 71.85L44.15 95.061c1.679-1.157 3.133-2.612 4.29-4.291L25.23 67.559c-1.68 1.157-3.134 2.612-4.292 4.291z"/>
    <defs>
        <linearGradient id="paint0_linear" x1="78.572" x2="84.904" y1="51.482" y2="68.841" gradientUnits="userSpaceOnUse">
            <stop stop-color="#FF637B"/>
            <stop offset="1" stop-color="#E63950"/>
        </linearGradient>
        <linearGradient id="paint1_linear" x1="31" x2="66.261" y1="-6.5" y2="43.244" gradientUnits="userSpaceOnUse">
            <stop stop-color="#FF9574"/>
            <stop offset="1" stop-color="#CB2950"/>
        </linearGradient>
        <linearGradient id="paint2_linear" x1="66.552" x2="66.552" y1="18.808" y2="24.593" gradientUnits="userSpaceOnUse">
            <stop stop-color="#F7E07D"/>
            <stop offset="1" stop-color="#E69642"/>
        </linearGradient>
        <linearGradient id="paint3_linear" x1="72.621" x2="72.621" y1="18.808" y2="24.593" gradientUnits="userSpaceOnUse">
            <stop stop-color="#F7E07D"/>
            <stop offset="1" stop-color="#E69642"/>
        </linearGradient>
        <linearGradient id="paint4_linear" x1="78.689" x2="78.689" y1="18.808" y2="24.593" gradientUnits="userSpaceOnUse">
            <stop stop-color="#F7E07D"/>
            <stop offset="1" stop-color="#E69642"/>
        </linearGradient>
        <linearGradient id="paint5_linear" x1="84.758" x2="84.758" y1="18.808" y2="24.593" gradientUnits="userSpaceOnUse">
            <stop stop-color="#F7E07D"/>
            <stop offset="1" stop-color="#E69642"/>
        </linearGradient>
        <linearGradient id="paint6_linear" x1="90.828" x2="90.828" y1="18.808" y2="24.593" gradientUnits="userSpaceOnUse">
            <stop stop-color="#F7E07D"/>
            <stop offset="1" stop-color="#E69642"/>
        </linearGradient>
        <linearGradient id="paint7_linear" x1="96.897" x2="96.897" y1="18.808" y2="24.593" gradientUnits="userSpaceOnUse">
            <stop stop-color="#F7E07D"/>
            <stop offset="1" stop-color="#E69642"/>
        </linearGradient>
        <linearGradient id="paint8_linear" x1="46.621" x2="43.42" y1="32.943" y2="36.144" gradientUnits="userSpaceOnUse">
            <stop stop-color="#9AE1D3"/>
            <stop offset="1" stop-color="#80D1C1"/>
        </linearGradient>
        <linearGradient id="paint9_linear" x1="53.739" x2="44.985" y1="69.461" y2="74.385" gradientUnits="userSpaceOnUse">
            <stop stop-color="#9AE1D3"/>
            <stop offset="1" stop-color="#80D1C1"/>
        </linearGradient>
        <linearGradient id="paint10_linear" x1="27.661" x2="25.42" y1="23.083" y2="25.324" gradientUnits="userSpaceOnUse">
            <stop stop-color="#9AE1D3"/>
            <stop offset="1" stop-color="#80D1C1"/>
        </linearGradient>
        <linearGradient id="paint11_linear" x1="34.69" x2="34.69" y1="76.328" y2="92.237" gradientUnits="userSpaceOnUse">
            <stop stop-color="#F7E07D"/>
            <stop offset="1" stop-color="#E69642"/>
        </linearGradient>
        <filter id="filter0_d" width="92.536" height="68.78" x="29" y="75.163" color-interpolation-filters="sRGB" filterUnits="userSpaceOnUse">
            <feFlood flood-opacity="0" result="BackgroundImageFix"/>
            <feColorMatrix in="SourceAlpha" values="0 0 0 0 0 0 0 0 0 0 0 0 0 0 0 0 0 0 127 0"/>
            <feOffset dy="25"/>
            <feGaussianBlur stdDeviation="11"/>
            <feColorMatrix values="0 0 0 0 0.118924 0 0 0 0 0.557343 0 0 0 0 0.570833 0 0 0 0.3 0"/>
            <feBlend in2="BackgroundImageFix" result="effect1_dropShadow"/>
            <feBlend in="SourceGraphic" in2="effect1_dropShadow" result="shape"/>
        </filter>
        <filter id="filter1_d" width="66" height="65.779" x="0" y="75.056" color-interpolation-filters="sRGB" filterUnits="userSpaceOnUse">
            <feFlood flood-opacity="0" result="BackgroundImageFix"/>
            <feColorMatrix in="SourceAlpha" values="0 0 0 0 0 0 0 0 0 0 0 0 0 0 0 0 0 0 127 0"/>
            <feOffset dy="22"/>
            <feGaussianBlur stdDeviation="11"/>
            <feColorMatrix values="0 0 0 0 0.118924 0 0 0 0 0.557343 0 0 0 0 0.570833 0 0 0 0.4 0"/>
            <feBlend in2="BackgroundImageFix" result="effect1_dropShadow"/>
            <feBlend in="SourceGraphic" in2="effect1_dropShadow" result="shape"/>
        </filter>
        <filter id="filter2_d" width="50" height="49.779" x="26" y="67.056" color-interpolation-filters="sRGB" filterUnits="userSpaceOnUse">
            <feFlood flood-opacity="0" result="BackgroundImageFix"/>
            <feColorMatrix in="SourceAlpha" values="0 0 0 0 0 0 0 0 0 0 0 0 0 0 0 0 0 0 127 0"/>
            <feOffset dy="6"/>
            <feGaussianBlur stdDeviation="7"/>
            <feColorMatrix values="0 0 0 0 0.118924 0 0 0 0 0.557343 0 0 0 0 0.570833 0 0 0 0.4 0"/>
            <feBlend in2="BackgroundImageFix" result="effect1_dropShadow"/>
            <feBlend in="SourceGraphic" in2="effect1_dropShadow" result="shape"/>
        </filter>
    </defs>
</svg>
