<svg xmlns="http://www.w3.org/2000/svg" width="116" height="131" fill="none" viewBox="0 0 116 131">
    <path fill="#F3F7FB" d="M0 0H105V122H0z"/>
    <g filter="url(#filter0_d)">
        <ellipse cx="59.098" cy="93.848" fill="#0B1219" rx="5.135" ry="11.452" transform="rotate(97.052 59.098 93.848)"/>
    </g>
    <g filter="url(#filter1_d)">
        <ellipse cx="34.448" cy="71.544" fill="#0B1219" rx="5.493" ry="15.219" transform="rotate(96.867 34.448 71.544)"/>
    </g>
    <g filter="url(#filter2_d)">
        <ellipse cx="74.115" cy="57.546" fill="#0B1219" rx="5.493" ry="22.102" transform="rotate(90.137 74.115 57.546)"/>
    </g>
    <path fill="#84BE52" d="M54.147 62.302c1.421 1.027 3.169 1.633 5.058 1.633h16.162v7.836l10.245-7.837h4.42c4.765 0 8.627-3.85 8.627-8.6V24.6c0-4.75-3.862-8.601-8.627-8.601H59.205c-4.765 0-8.627 3.85-8.627 8.6v37.702h3.569z"/>
    <path fill="#0B1219" fill-opacity=".1" d="M90.032 16h-7.39c4.766 0 8.628 3.85 8.628 8.6v30.734c0 4.75-3.862 8.6-8.627 8.6h-4.42l-2.856 2.185v5.652l10.245-7.837h4.42c4.765 0 8.627-3.85 8.627-8.6V24.6c0-4.75-3.862-8.601-8.627-8.601z"/>
    <path fill="#FFC130" d="M67.97 51.328l.89.72c1.41 1.14 3.169 1.763 4.983 1.763h12.623c1.196 0 2.16-.998 2.103-2.207-.053-1.133.002-11.446.002-12.609 0-1.163-.942-2.106-2.105-2.106l-8.56-.026 1.048-2.481c1.089-2.58.913-5.52-.476-7.95-.753-1.164-2.582-.736-2.617.695 0 2.226-.813 4.375-2.286 6.044l-5.458 6.176h-1.99v11.98h1.844z"/>
    <path fill="#fff" d="M67.119 53.227h-5.763c-.381 0-.69-.308-.69-.69v-14.69c0-.382.309-.69.69-.69h5.763c.38 0 .69.308.69.69v14.69c0 .382-.31.69-.69.69z"/>
    <path fill="#24AEB1" d="M54.16 77.704V46.686c0-3.746-3.046-6.783-6.804-6.783h-24.31c-3.757 0-6.803 3.037-6.803 6.783V70.92c0 3.746 3.046 6.783 6.803 6.783h13.355v6.238l8.08-6.238h9.678z"/>
    <path fill="#0B1219" fill-opacity=".1" d="M47.356 39.903h-9.634c3.758 0 6.804 3.037 6.804 6.783v31.018h9.634V46.686c0-3.746-3.046-6.783-6.804-6.783z"/>
    <path fill="#F7F3F1" d="M44.116 60.797h-4.889l.536-3.24h4.353c1.713 0 1.713-2.656 0-2.656h-3.914l.731-4.423c.28-1.69-2.34-2.123-2.62-.433l-.803 4.856h-3.204l.732-4.423c.279-1.69-2.34-2.123-2.62-.433l-.804 4.856h-5.328c-1.713 0-1.713 2.656 0 2.656h4.89l-.536 3.24h-4.354c-1.713 0-1.713 2.656 0 2.656h3.915l-.732 4.422c-.276 1.672 2.34 2.126 2.62.434l.803-4.856h3.204l-.731 4.422c-.277 1.672 2.34 2.126 2.62.434l.803-4.856h5.328c1.713 0 1.713-2.656 0-2.656zm-7.58 0h-3.204l.535-3.24h3.204l-.536 3.24z"/>
    <path fill="#EF4281" d="M67.32 72.748H50.067c-2.667 0-4.828 2.155-4.828 4.813V94.76c0 2.658 2.161 4.813 4.828 4.813h9.477V104l5.734-4.427h2.04c2.667 0 4.828-2.155 4.828-4.813V77.561c0-2.658-2.161-4.813-4.828-4.813z"/>
    <path fill="#0B1219" fill-opacity=".1" d="M67.32 72.748h-7.437c2.666 0 4.828 2.155 4.828 4.813v17.2c0 2.657-2.162 4.812-4.828 4.812h-.338V104l5.734-4.427h2.04c2.667 0 4.828-2.155 4.828-4.813V77.561c0-2.658-2.161-4.813-4.828-4.813z"/>
    <path fill="#F7F3F1" d="M58.694 92.004c4.151-2.2 6.302-4.073 6.302-6.974 0-4.001-4.902-5.002-6.302-2-1.601-3.102-6.303-2.001-6.303 2 0 2.901 2.151 4.774 6.303 6.974z"/>
    <defs>
        <filter id="filter0_d" width="60.766" height="48.576" x="30.715" y="81.56" color-interpolation-filters="sRGB" filterUnits="userSpaceOnUse">
            <feFlood flood-opacity="0" result="BackgroundImageFix"/>
            <feColorMatrix in="SourceAlpha" values="0 0 0 0 0 0 0 0 0 0 0 0 0 0 0 0 0 0 127 0"/>
            <feOffset dx="2" dy="12"/>
            <feGaussianBlur stdDeviation="9.5"/>
            <feColorMatrix values="0 0 0 0 0.980392 0 0 0 0 0.564706 0 0 0 0 0.517647 0 0 0 1 0"/>
            <feBlend in2="BackgroundImageFix" result="effect1_dropShadow"/>
            <feBlend in="SourceGraphic" in2="effect1_dropShadow" result="shape"/>
        </filter>
        <filter id="filter1_d" width="68.249" height="49.502" x=".323" y="64.793" color-interpolation-filters="sRGB" filterUnits="userSpaceOnUse">
            <feFlood flood-opacity="0" result="BackgroundImageFix"/>
            <feColorMatrix in="SourceAlpha" values="0 0 0 0 0 0 0 0 0 0 0 0 0 0 0 0 0 0 127 0"/>
            <feOffset dy="18"/>
            <feGaussianBlur stdDeviation="9.5"/>
            <feColorMatrix values="0 0 0 0 0.184314 0 0 0 0 0.733333 0 0 0 0 0.952941 0 0 0 0.7 0"/>
            <feBlend in2="BackgroundImageFix" result="effect1_dropShadow"/>
            <feBlend in="SourceGraphic" in2="effect1_dropShadow" result="shape"/>
        </filter>
        <filter id="filter2_d" width="82.204" height="48.987" x="33.013" y="51.053" color-interpolation-filters="sRGB" filterUnits="userSpaceOnUse">
            <feFlood flood-opacity="0" result="BackgroundImageFix"/>
            <feColorMatrix in="SourceAlpha" values="0 0 0 0 0 0 0 0 0 0 0 0 0 0 0 0 0 0 127 0"/>
            <feOffset dy="18"/>
            <feGaussianBlur stdDeviation="9.5"/>
            <feColorMatrix values="0 0 0 0 1 0 0 0 0 0.827451 0 0 0 0 0.423529 0 0 0 1 0"/>
            <feBlend in2="BackgroundImageFix" result="effect1_dropShadow"/>
            <feBlend in="SourceGraphic" in2="effect1_dropShadow" result="shape"/>
        </filter>
    </defs>
</svg>
